<svg width="2500" height="2500" viewBox="0 0 2500 2500" fill="none" xmlns="http://www.w3.org/2000/svg">
<path d="M1770.12 315.125C1767 322.719 1762.41 329.623 1756.62 335.442C1750.82 341.262 1743.94 345.882 1736.36 349.04C1728.78 352.197 1720.65 353.83 1712.44 353.844C1704.23 353.859 1696.09 352.255 1688.5 349.125L1572.87 301.5C1565.28 298.373 1558.38 293.781 1552.56 287.987C1546.75 282.192 1542.13 275.309 1538.97 267.729C1535.81 260.15 1534.18 252.022 1534.16 243.812C1534.15 235.601 1535.75 227.467 1538.87 219.875C1542 212.283 1546.59 205.381 1552.39 199.564C1558.18 193.746 1565.07 189.127 1572.65 185.97C1580.23 182.813 1588.35 181.179 1596.56 181.163C1604.77 181.147 1612.91 182.748 1620.5 185.875L1736.12 233.5C1743.72 236.624 1750.62 241.215 1756.44 247.009C1762.26 252.803 1766.88 259.687 1770.04 267.267C1773.2 274.847 1774.83 282.976 1774.84 291.187C1774.86 299.399 1773.26 307.533 1770.12 315.125V315.125Z" fill="#B44138"/>
<path d="M1596.75 243.75L1712.38 291.375L1593.37 580.375L1477.75 532.75L1596.75 243.75ZM961.063 2280C964.182 2272.41 965.775 2264.28 965.751 2256.07C965.727 2247.86 964.087 2239.74 960.924 2232.16C957.761 2224.59 953.137 2217.71 947.316 2211.93C941.496 2206.14 934.592 2201.56 927 2198.44L811.438 2150.81C796.105 2144.5 778.891 2144.53 763.583 2150.91C748.276 2157.28 736.128 2169.48 729.813 2184.81C723.497 2200.15 723.531 2217.36 729.907 2232.67C736.284 2247.97 748.48 2260.12 763.813 2266.44L879.437 2314.06C894.779 2320.36 911.995 2320.32 927.301 2313.93C942.607 2307.54 954.751 2295.34 961.063 2280V2280Z" fill="#B44138"/>
<path d="M906.5 1919.63L1022.13 1967.13L903.25 2256.19L787.625 2208.63L906.5 1919.63ZM315.125 729.875C322.719 733 329.623 737.59 335.442 743.384C341.262 749.178 345.882 756.062 349.04 763.642C352.197 771.222 353.83 779.351 353.844 787.563C353.859 795.774 352.255 803.908 349.125 811.5L301.5 927.063C298.373 934.655 293.781 941.556 287.987 947.374C282.192 953.191 275.309 957.81 267.729 960.968C260.15 964.125 252.022 965.758 243.812 965.774C235.601 965.791 227.467 964.19 219.875 961.063C212.283 957.935 205.381 953.344 199.564 947.549C193.746 941.755 189.127 934.871 185.97 927.292C182.813 919.712 181.179 911.585 181.163 903.374C181.147 895.163 182.748 887.03 185.875 879.437L233.5 763.875C239.824 748.549 251.972 736.359 267.277 729.984C282.582 723.609 299.791 723.57 315.125 729.875Z" fill="#B44138"/>
<path d="M243.75 903.125L291.313 787.562L580.312 906.625L532.75 1022.19L243.75 903.125ZM2280 1538.94C2272.41 1535.82 2264.28 1534.23 2256.07 1534.25C2247.86 1534.27 2239.74 1535.91 2232.16 1539.08C2224.59 1542.24 2217.71 1546.86 2211.93 1552.68C2206.14 1558.5 2201.56 1565.41 2198.44 1573L2150.81 1688.56C2147.69 1696.15 2146.08 1704.29 2146.1 1712.5C2146.12 1720.71 2147.75 1728.84 2150.91 1736.42C2154.06 1744 2158.68 1750.88 2164.5 1756.67C2170.32 1762.47 2177.22 1767.06 2184.81 1770.19C2192.4 1773.31 2200.54 1774.92 2208.75 1774.9C2216.96 1774.88 2225.09 1773.25 2232.67 1770.09C2240.25 1766.94 2247.13 1762.32 2252.92 1756.5C2258.72 1750.68 2263.31 1743.78 2266.44 1736.19L2314.06 1620.56C2320.36 1605.22 2320.32 1588 2313.93 1572.7C2307.54 1557.39 2295.34 1545.25 2280 1538.94V1538.94Z" fill="#B44138"/>
<path d="M1919.81 1593.31L1967.44 1477.81L2256.37 1596.87L2208.75 1712.38L1919.81 1593.31ZM221.187 1543.19C228.763 1540.03 236.887 1538.39 245.095 1538.37C253.304 1538.35 261.436 1539.94 269.027 1543.07C276.619 1546.19 283.52 1550.78 289.339 1556.57C295.157 1562.36 299.778 1569.24 302.937 1576.81L351 1692.25C357.368 1707.56 357.405 1724.77 351.101 1740.11C344.798 1755.44 332.669 1767.66 317.375 1774.06C302.064 1780.41 284.863 1780.42 269.539 1774.11C254.216 1767.8 242.02 1755.66 235.625 1740.37L187.5 1625C184.332 1617.42 182.69 1609.28 182.668 1601.07C182.647 1592.85 184.247 1584.71 187.376 1577.11C190.505 1569.51 195.102 1562.6 200.904 1556.78C206.706 1550.96 213.598 1546.34 221.187 1543.19V1543.19Z" fill="#B44138"/>
<path d="M293.312 1716.19L245.312 1600.88L533.813 1480.75L581.812 1596.06L293.312 1716.19ZM2182.69 725.938C2167.4 732.319 2155.28 744.506 2148.97 759.823C2142.67 775.14 2142.7 792.333 2149.06 807.625L2197.19 923.062C2203.56 938.37 2215.75 950.52 2231.09 956.837C2246.42 963.155 2263.63 963.124 2278.94 956.75C2294.25 950.377 2306.39 938.183 2312.71 922.852C2319.03 907.521 2319 890.308 2312.62 875L2264.44 759.563C2261.28 751.986 2256.66 745.107 2250.84 739.317C2245.02 733.527 2238.12 728.94 2230.53 725.817C2222.94 722.695 2214.8 721.098 2206.6 721.119C2198.39 721.14 2190.26 722.777 2182.69 725.938V725.938Z" fill="#B44138"/>
<path d="M1966.38 1019.25L1918.25 903.813L2206.62 783.437L2254.75 898.875L1966.38 1019.25ZM956.813 221.125C959.973 228.701 961.61 236.824 961.631 245.033C961.652 253.241 960.055 261.373 956.933 268.965C953.81 276.556 949.223 283.458 943.433 289.276C937.643 295.095 930.764 299.716 923.188 302.875L807.75 351C792.442 357.382 775.226 357.421 759.889 351.109C744.552 344.798 732.351 332.652 725.969 317.344C719.587 302.036 719.548 284.82 725.859 269.483C732.171 254.146 744.317 241.944 759.625 235.562L875.062 187.5C882.637 184.331 890.762 182.687 898.973 182.662C907.184 182.637 915.319 184.232 922.912 187.356C930.506 190.479 937.409 195.069 943.226 200.864C949.043 206.659 953.66 213.544 956.813 221.125V221.125Z" fill="#B44138"/>
<path d="M783.688 293.25L899.063 245.125L1019.31 533.562L903.937 581.688L783.688 293.25ZM1774.13 2182.62C1767.72 2167.35 1755.52 2155.23 1740.2 2148.93C1724.87 2142.63 1707.68 2142.65 1692.37 2149L1577 2197.06C1545 2210.5 1530 2247.06 1543.25 2279C1556.56 2310.69 1593.13 2325.81 1625 2312.5L1740.44 2264.37C1748.02 2261.22 1754.91 2256.6 1760.7 2250.79C1766.5 2244.97 1771.09 2238.07 1774.22 2230.48C1777.35 2222.89 1778.95 2214.75 1778.93 2206.54C1778.92 2198.33 1777.28 2190.2 1774.13 2182.62Z" fill="#B44138"/>
<path d="M1480.62 1966.44L1596.12 1918.19L1716.56 2206.62L1601.12 2254.81L1480.62 1966.44Z" fill="#B44138"/>
<path d="M1375 62.5C1375 79.076 1368.42 94.9731 1356.69 106.694C1344.97 118.415 1329.08 125 1312.5 125H1187.5C1170.92 125 1155.03 118.415 1143.31 106.694C1131.58 94.9731 1125 79.076 1125 62.5C1125 45.924 1131.58 30.0269 1143.31 18.3058C1155.03 6.58481 1170.92 0 1187.5 0H1312.5C1329.08 0 1344.97 6.58481 1356.69 18.3058C1368.42 30.0269 1375 45.924 1375 62.5Z" fill="#FF5F52"/>
<path d="M1187.5 62.5H1312.5V375H1187.5V62.5ZM1375 2437.5C1375 2420.92 1368.42 2405.03 1356.69 2393.31C1344.97 2381.58 1329.08 2375 1312.5 2375H1187.5C1170.92 2375 1155.03 2381.58 1143.31 2393.31C1131.58 2405.03 1125 2420.92 1125 2437.5C1125 2454.08 1131.58 2469.97 1143.31 2481.69C1155.03 2493.42 1170.92 2500 1187.5 2500H1312.5C1329.08 2500 1344.97 2493.42 1356.69 2481.69C1368.42 2469.97 1375 2454.08 1375 2437.5Z" fill="#FF5F52"/>
<path d="M1187.5 2125H1312.5V2437.5H1187.5V2125ZM62.5 1125C79.076 1125 94.9731 1131.58 106.694 1143.31C118.415 1155.03 125 1170.92 125 1187.5V1312.5C125 1329.08 118.415 1344.97 106.694 1356.69C94.9731 1368.42 79.076 1375 62.5 1375C45.924 1375 30.0269 1368.42 18.3058 1356.69C6.58481 1344.97 0 1329.08 0 1312.5V1187.5C0 1170.92 6.58481 1155.03 18.3058 1143.31C30.0269 1131.58 45.924 1125 62.5 1125Z" fill="#FF5F52"/>
<path d="M62.5 1187.5H375V1312.5H62.5V1187.5ZM2437.5 1125C2420.92 1125 2405.03 1131.58 2393.31 1143.31C2381.58 1155.03 2375 1170.92 2375 1187.5V1312.5C2375 1329.08 2381.58 1344.97 2393.31 1356.69C2405.03 1368.42 2420.92 1375 2437.5 1375C2454.08 1375 2469.97 1368.42 2481.69 1356.69C2493.42 1344.97 2500 1329.08 2500 1312.5V1187.5C2500 1170.92 2493.42 1155.03 2481.69 1143.31C2469.97 1131.58 2454.08 1125 2437.5 1125Z" fill="#FF5F52"/>
<path d="M2125 1187.5H2437.5V1312.5H2125V1187.5ZM321.875 2001.31C333.606 1989.59 349.511 1983.01 366.094 1983.01C382.677 1983.01 398.581 1989.59 410.312 2001.31L498.688 2089.69C504.657 2095.45 509.418 2102.35 512.694 2109.97C515.969 2117.6 517.694 2125.8 517.766 2134.1C517.838 2142.4 516.256 2150.63 513.114 2158.31C509.971 2165.99 505.33 2172.97 499.462 2178.84C493.594 2184.71 486.616 2189.35 478.935 2192.49C471.254 2195.63 463.024 2197.21 454.725 2197.14C446.426 2197.07 438.225 2195.34 430.6 2192.07C422.975 2188.79 416.078 2184.03 410.312 2178.06L321.875 2089.69C310.189 2077.95 303.627 2062.06 303.627 2045.5C303.627 2028.94 310.189 2013.05 321.875 2001.31Z" fill="#FF5F52"/>
<path d="M454.5 2133.87L366.125 2045.5L587.062 1824.56L675.438 1912.94L454.5 2133.87ZM2001.31 321.875C1989.6 333.595 1983.01 349.49 1983.01 366.063C1983.01 382.635 1989.6 398.53 2001.31 410.25L2089.75 498.625C2095.52 504.594 2102.41 509.356 2110.04 512.631C2117.66 515.907 2125.86 517.631 2134.16 517.703C2142.46 517.775 2150.69 516.194 2158.37 513.051C2166.05 509.909 2173.03 505.268 2178.9 499.4C2184.77 493.531 2189.41 486.553 2192.55 478.872C2195.69 471.191 2197.28 462.961 2197.2 454.662C2197.13 446.364 2195.41 438.162 2192.13 430.537C2188.86 422.912 2184.09 416.015 2178.12 410.25L2089.75 321.875C2078 310.185 2062.1 303.622 2045.53 303.622C2028.96 303.622 2013.06 310.185 2001.31 321.875V321.875Z" fill="#FF5F52"/>
<path d="M1912.69 675.375L1824.31 587L2045.25 365.938L2133.63 454.25L1912.69 675.375ZM2001.31 2178.12C1989.59 2166.39 1983.01 2150.49 1983.01 2133.91C1983.01 2117.32 1989.59 2101.42 2001.31 2089.69L2089.69 2001.31C2095.45 1995.34 2102.35 1990.58 2109.97 1987.31C2117.6 1984.03 2125.8 1982.31 2134.1 1982.23C2142.4 1982.16 2150.63 1983.74 2158.31 1986.89C2165.99 1990.03 2172.97 1994.67 2178.84 2000.54C2184.71 2006.41 2189.35 2013.38 2192.49 2021.07C2195.63 2028.75 2197.21 2036.98 2197.14 2045.28C2197.07 2053.57 2195.34 2061.78 2192.07 2069.4C2188.79 2077.03 2184.03 2083.92 2178.06 2089.69L2089.69 2178.12C2077.95 2189.81 2062.06 2196.37 2045.5 2196.37C2028.94 2196.37 2013.05 2189.81 2001.31 2178.12Z" fill="#FF5F52"/>
<path d="M2133.87 2045.5L2045.5 2133.87L1824.56 1912.94L1912.94 1824.56L2133.87 2045.5ZM321.875 498.687C333.595 510.404 349.49 516.987 366.063 516.987C382.635 516.987 398.53 510.404 410.25 498.687L498.625 410.25C504.594 404.485 509.356 397.588 512.631 389.963C515.907 382.337 517.631 374.136 517.703 365.838C517.775 357.539 516.194 349.309 513.051 341.628C509.909 333.947 505.268 326.969 499.4 321.1C493.531 315.232 486.553 310.591 478.872 307.449C471.191 304.306 462.961 302.725 454.662 302.797C446.364 302.869 438.162 304.593 430.537 307.869C422.912 311.144 416.015 315.906 410.25 321.875L321.875 410.25C310.185 421.997 303.622 437.896 303.622 454.469C303.622 471.042 310.185 486.94 321.875 498.687Z" fill="#FF5F52"/>
<path d="M675.375 587L587.062 675.375L365.938 454.437L454.313 366.062L675.375 587Z" fill="#FF5F52"/>
<path d="M1250 312.5C1001.36 312.5 762.903 411.272 587.087 587.087C411.272 762.903 312.5 1001.36 312.5 1250C312.5 1498.64 411.272 1737.1 587.087 1912.91C762.903 2088.73 1001.36 2187.5 1250 2187.5C1498.64 2187.5 1737.1 2088.73 1912.91 1912.91C2088.73 1737.1 2187.5 1498.64 2187.5 1250C2187.5 1001.36 2088.73 762.903 1912.91 587.087C1737.1 411.272 1498.64 312.5 1250 312.5Z" fill="#FCA8A1"/>
<path d="M1250 437.5C1698 437.5 2062.5 802 2062.5 1250C2062.5 1698 1698 2062.5 1250 2062.5C802 2062.5 437.5 1698 437.5 1250C437.5 802 802 437.5 1250 437.5ZM1250 312.5C732.25 312.5 312.5 732.25 312.5 1250C312.5 1767.75 732.25 2187.5 1250 2187.5C1767.75 2187.5 2187.5 1767.75 2187.5 1250C2187.5 732.25 1767.75 312.5 1250 312.5Z" fill="#FF5F52"/>
<path d="M1058.75 1907.69C1052.38 1907.69 1045.94 1906.69 1039.5 1904.62L1026.69 1900.37C1011.18 1894.89 998.454 1883.51 991.279 1868.71C984.104 1853.9 983.056 1836.87 988.362 1821.29C993.668 1805.72 1004.9 1792.87 1019.62 1785.52C1034.34 1778.18 1051.37 1776.94 1067 1782.06L1077.94 1785.75C1092.08 1790.35 1104.12 1799.83 1111.89 1812.51C1119.66 1825.18 1122.67 1840.21 1120.35 1854.9C1118.04 1869.59 1110.57 1882.97 1099.28 1892.65C1087.99 1902.32 1073.62 1907.65 1058.75 1907.69V1907.69ZM1553.25 1859.19C1539.46 1859.1 1526.09 1854.47 1515.21 1846C1504.32 1837.54 1496.53 1825.72 1493.05 1812.38C1489.57 1799.04 1490.58 1784.93 1495.94 1772.22C1501.3 1759.52 1510.7 1748.94 1522.69 1742.12L1532.81 1736.37C1539.92 1732.28 1547.77 1729.62 1555.9 1728.56C1564.03 1727.5 1572.3 1728.04 1580.22 1730.17C1588.14 1732.3 1595.57 1735.97 1602.07 1740.97C1608.57 1745.97 1614.03 1752.2 1618.12 1759.31C1622.22 1766.42 1624.88 1774.27 1625.94 1782.4C1627 1790.53 1626.45 1798.8 1624.33 1806.72C1622.2 1814.64 1618.53 1822.07 1613.53 1828.57C1608.53 1835.07 1602.3 1840.53 1595.19 1844.62L1583.69 1851.19C1574.4 1856.44 1563.92 1859.19 1553.25 1859.19V1859.19ZM1283.81 1931.81C1270.86 1926.86 1259.92 1917.73 1252.73 1905.86C1245.54 1894 1242.51 1880.08 1244.1 1866.31C1245.7 1852.53 1251.84 1839.67 1261.56 1829.77C1271.27 1819.87 1284 1813.49 1297.75 1811.62L1309.25 1810C1317.37 1808.74 1325.65 1809.09 1333.63 1811.04C1341.61 1812.99 1349.12 1816.5 1355.74 1821.36C1362.36 1826.22 1367.96 1832.34 1372.2 1839.37C1376.45 1846.39 1379.27 1854.19 1380.5 1862.31C1381.75 1870.42 1381.39 1878.7 1379.44 1886.67C1377.48 1894.64 1373.98 1902.15 1369.12 1908.76C1364.26 1915.38 1358.14 1920.97 1351.12 1925.21C1344.09 1929.45 1336.3 1932.27 1328.19 1933.5L1315.12 1935.5C1304.54 1937 1293.76 1935.72 1283.81 1931.81V1931.81ZM833.375 1778.37C818.051 1778.38 803.26 1772.75 791.813 1762.56L781.375 1753C775.395 1747.38 770.582 1740.64 767.211 1733.16C763.839 1725.68 761.975 1717.6 761.725 1709.4C761.476 1701.2 762.846 1693.03 765.756 1685.36C768.666 1677.68 773.061 1670.66 778.687 1664.69C784.299 1658.69 791.041 1653.85 798.526 1650.47C806.011 1647.08 814.092 1645.2 822.304 1644.95C830.515 1644.69 838.697 1646.06 846.378 1648.98C854.059 1651.89 861.088 1656.3 867.062 1661.94L875 1669.19C884.47 1677.62 891.153 1688.72 894.162 1701.04C897.171 1713.35 896.365 1726.29 891.849 1738.14C887.333 1749.98 879.322 1760.18 868.878 1767.36C858.434 1774.55 846.052 1778.39 833.375 1778.37V1778.37ZM1749.13 1688.69C1737.5 1688.68 1726.1 1685.42 1716.22 1679.29C1706.34 1673.15 1698.37 1664.39 1693.2 1653.97C1688.03 1643.55 1685.87 1631.9 1686.96 1620.33C1688.05 1608.75 1692.35 1597.71 1699.38 1588.44L1706 1579.44C1710.7 1572.49 1716.74 1566.55 1723.78 1561.99C1730.82 1557.42 1738.7 1554.32 1746.96 1552.87C1755.22 1551.42 1763.69 1551.64 1771.86 1553.53C1780.04 1555.42 1787.74 1558.93 1794.53 1563.86C1801.31 1568.8 1807.04 1575.04 1811.36 1582.23C1815.68 1589.42 1818.51 1597.41 1819.68 1605.71C1820.85 1614.02 1820.33 1622.47 1818.17 1630.58C1816 1638.68 1812.22 1646.26 1807.06 1652.87L1798.94 1663.94C1793.13 1671.65 1785.6 1677.9 1776.95 1682.19C1768.31 1686.49 1758.78 1688.71 1749.13 1688.69V1688.69ZM679.875 1568.94C667.838 1568.94 656.056 1565.47 645.944 1558.94C635.833 1552.41 627.822 1543.1 622.875 1532.12L617.375 1519.62C610.867 1504.38 610.673 1487.18 616.837 1471.79C623.001 1456.41 635.018 1444.1 650.25 1437.56C682.125 1424.06 718.75 1438.81 732.313 1470.5L736.75 1480.69C741.086 1490.2 742.963 1500.65 742.207 1511.07C741.451 1521.5 738.087 1531.57 732.425 1540.35C726.762 1549.14 718.983 1556.36 709.8 1561.36C700.618 1566.35 690.328 1568.96 679.875 1568.94V1568.94ZM1859.12 1453.31C1849.74 1453.32 1840.47 1451.21 1832.01 1447.15C1823.55 1443.08 1816.11 1437.17 1810.25 1429.84C1804.38 1422.51 1800.24 1413.95 1798.13 1404.81C1796.02 1395.66 1796 1386.16 1798.06 1377L1800.56 1365.94C1802.22 1357.9 1805.45 1350.26 1810.07 1343.47C1814.69 1336.68 1820.6 1330.87 1827.47 1326.38C1834.35 1321.88 1842.04 1318.79 1850.11 1317.28C1858.18 1315.76 1866.47 1315.86 1874.5 1317.56C1882.54 1319.23 1890.17 1322.46 1896.95 1327.09C1903.74 1331.71 1909.54 1337.62 1914.04 1344.49C1918.53 1351.36 1921.62 1359.05 1923.14 1367.11C1924.66 1375.18 1924.57 1383.47 1922.87 1391.5L1920 1404.75C1916.85 1418.54 1909.11 1430.85 1898.05 1439.67C1886.99 1448.49 1873.27 1453.3 1859.12 1453.31V1453.31ZM625 1313.81C590.5 1313.81 562.5 1287.12 562.5 1252.62L562.625 1236.25C563.355 1219.94 570.441 1204.56 582.367 1193.4C594.293 1182.24 610.112 1176.2 626.438 1176.56C642.764 1176.92 658.301 1183.65 669.725 1195.32C681.148 1206.99 687.551 1222.67 687.563 1239L687.5 1250C687.5 1284.5 659.5 1313.81 625 1313.81V1313.81ZM1863.63 1193.62C1849.13 1193.61 1835.08 1188.55 1823.91 1179.31C1812.73 1170.08 1805.12 1157.24 1802.38 1143L1800.06 1131.75C1796.64 1115.53 1799.8 1098.62 1808.85 1084.73C1817.9 1070.84 1832.09 1061.11 1848.31 1057.69C1864.53 1054.26 1881.45 1057.42 1895.34 1066.47C1909.23 1075.52 1918.95 1089.72 1922.37 1105.94L1925.06 1119.12C1926.84 1128.19 1926.58 1137.53 1924.31 1146.48C1922.04 1155.43 1917.82 1163.77 1911.94 1170.89C1906.07 1178.01 1898.69 1183.75 1890.34 1187.68C1881.98 1191.61 1872.86 1193.64 1863.63 1193.62V1193.62ZM678.75 1058.44C668.323 1058.43 658.063 1055.82 648.905 1050.83C639.747 1045.85 631.981 1038.65 626.315 1029.9C620.65 1021.15 617.264 1011.11 616.466 1000.72C615.669 990.321 617.485 979.89 621.75 970.375L627.25 958.313C634.22 943.27 646.881 931.612 662.446 925.904C678.012 920.196 695.207 920.905 710.25 927.875C725.293 934.845 736.95 947.506 742.659 963.071C748.367 978.637 747.658 995.832 740.687 1010.87L735.812 1021.5C730.879 1032.51 722.867 1041.85 712.742 1048.4C702.617 1054.96 690.811 1058.44 678.75 1058.44V1058.44ZM1762.38 954.437C1752.34 954.446 1742.44 952.037 1733.53 947.413C1724.62 942.789 1716.96 936.088 1711.19 927.875L1704.56 918.625C1699.73 911.989 1696.26 904.467 1694.33 896.488C1692.41 888.509 1692.08 880.229 1693.35 872.121C1694.63 864.013 1697.49 856.237 1701.77 849.235C1706.06 842.233 1711.68 836.143 1718.31 831.313C1724.95 826.482 1732.47 823.007 1740.45 821.083C1748.43 819.16 1756.71 818.828 1764.82 820.104C1772.92 821.381 1780.7 824.243 1787.7 828.525C1794.7 832.807 1800.79 838.427 1805.62 845.063L1813.5 856.063C1820.04 865.429 1823.89 876.407 1824.63 887.806C1825.37 899.205 1822.98 910.589 1817.72 920.725C1812.45 930.861 1804.51 939.362 1794.75 945.305C1784.99 951.247 1773.8 954.406 1762.38 954.437ZM831.625 848.25C818.968 848.273 806.603 844.453 796.165 837.295C785.726 830.137 777.707 819.979 773.168 808.164C768.629 796.349 767.785 783.435 770.745 771.129C773.706 758.824 780.333 747.707 789.75 739.25L800.063 730.125C812.611 719.284 828.951 713.872 845.49 715.08C862.028 716.287 877.409 724.014 888.25 736.563C899.091 749.111 904.503 765.451 903.296 781.989C902.088 798.528 894.361 813.909 881.812 824.75L873.438 832.125C861.985 842.504 847.081 848.252 831.625 848.25V848.25ZM1572.5 777.063C1561 777.078 1549.73 773.897 1539.94 767.875L1530.69 762.375C1523.46 758.34 1517.11 752.909 1511.99 746.398C1506.88 739.888 1503.12 732.426 1500.91 724.448C1498.71 716.469 1498.11 708.132 1499.15 699.921C1500.2 691.709 1502.86 683.787 1506.99 676.614C1511.12 669.441 1516.64 663.16 1523.22 658.135C1529.8 653.111 1537.31 649.443 1545.31 647.345C1553.32 645.247 1561.67 644.76 1569.86 645.914C1578.06 647.067 1585.94 649.837 1593.06 654.063L1605.25 661.25C1616.88 668.365 1625.86 679.088 1630.83 691.783C1635.8 704.479 1636.48 718.451 1632.77 731.57C1629.06 744.689 1621.16 756.235 1610.28 764.448C1599.4 772.661 1586.13 777.091 1572.5 777.063ZM1056.38 718.125C1041.49 718.137 1027.09 712.836 1015.76 703.177C1004.44 693.517 996.935 680.133 994.599 665.433C992.263 650.732 995.25 635.681 1003.02 622.987C1010.8 610.293 1022.84 600.79 1037 596.187L1050 592.062C1065.86 587.222 1083 588.882 1097.64 596.676C1112.28 604.471 1123.22 617.762 1128.06 633.625C1132.9 649.488 1131.24 666.625 1123.45 681.264C1115.65 695.904 1102.36 706.847 1086.5 711.688L1075.69 715.063C1069.45 717.078 1062.93 718.111 1056.38 718.125V718.125ZM1327.12 692.188C1324.47 692.206 1321.82 692.039 1319.19 691.688L1308.25 690.438C1291.77 688.735 1276.63 680.556 1266.18 667.699C1255.73 654.842 1250.8 638.359 1252.5 621.875C1253.27 613.685 1255.67 605.73 1259.54 598.475C1263.42 591.221 1268.71 584.811 1275.09 579.621C1281.47 574.432 1288.82 570.565 1296.72 568.248C1304.61 565.931 1312.89 565.209 1321.06 566.125L1334.94 567.688C1350.7 569.693 1365.1 577.623 1375.22 589.866C1385.34 602.11 1390.42 617.748 1389.43 633.602C1388.43 649.456 1381.44 664.336 1369.86 675.218C1358.29 686.1 1343.01 692.168 1327.12 692.188V692.188ZM1188.25 1682.44C1184.83 1682.45 1181.43 1682.16 1178.06 1681.56C1173.04 1680.77 1168.04 1679.85 1163.06 1678.81C1155.03 1677.12 1147.41 1673.86 1140.64 1669.22C1133.87 1664.58 1128.08 1658.65 1123.6 1651.77C1119.12 1644.9 1116.04 1637.2 1114.53 1629.14C1113.02 1621.07 1113.12 1612.78 1114.81 1604.75C1116.51 1596.72 1119.77 1589.1 1124.41 1582.33C1129.05 1575.56 1134.97 1569.77 1141.85 1565.29C1148.73 1560.81 1156.42 1557.72 1164.49 1556.22C1172.56 1554.71 1180.84 1554.81 1188.87 1556.5L1198.37 1558.25C1213.88 1560.77 1227.87 1569.05 1237.55 1581.42C1247.23 1593.79 1251.9 1609.36 1250.62 1625.02C1249.35 1640.68 1242.22 1655.28 1230.66 1665.92C1219.1 1676.56 1203.96 1682.46 1188.25 1682.44V1682.44ZM1429.19 1642C1417.98 1642.02 1406.97 1639.01 1397.33 1633.3C1387.68 1627.6 1379.75 1619.4 1374.37 1609.56C1370.41 1602.38 1367.9 1594.48 1366.99 1586.32C1366.09 1578.16 1366.8 1569.91 1369.09 1562.03C1371.39 1554.15 1375.22 1546.8 1380.36 1540.4C1385.5 1534 1391.86 1528.68 1399.06 1524.75L1408.31 1519.5C1422.57 1511.7 1439.3 1509.76 1454.96 1514.09C1470.62 1518.42 1483.98 1528.68 1492.2 1542.7C1500.43 1556.71 1502.87 1573.37 1499.02 1589.16C1495.17 1604.94 1485.32 1618.6 1471.56 1627.25L1459.25 1634.19C1450.06 1639.31 1439.71 1642 1429.19 1642V1642ZM965.25 1556.44C956.159 1556.46 947.173 1554.49 938.925 1550.66C930.676 1546.84 923.363 1541.26 917.5 1534.31L908.5 1523.5C898.123 1510.56 893.311 1494.03 895.122 1477.55C896.933 1461.06 905.219 1445.97 918.156 1435.59C931.094 1425.22 947.624 1420.4 964.109 1422.22C980.595 1424.03 995.686 1432.31 1006.06 1445.25L1012.94 1453.62C1020.62 1462.72 1025.54 1473.83 1027.12 1485.63C1028.7 1497.43 1026.88 1509.43 1021.87 1520.24C1016.86 1531.04 1008.87 1540.18 998.842 1546.6C988.811 1553.01 977.156 1556.42 965.25 1556.44ZM1598.88 1450.19C1588.66 1450.22 1578.59 1447.75 1569.56 1442.99C1560.53 1438.22 1552.8 1431.31 1547.06 1422.86C1541.32 1414.41 1537.74 1404.69 1536.64 1394.53C1535.54 1384.38 1536.95 1374.11 1540.75 1364.62L1544.44 1354.94C1547.21 1347.21 1551.47 1340.1 1556.99 1334.02C1562.51 1327.95 1569.17 1323.01 1576.59 1319.51C1584.01 1316 1592.05 1313.99 1600.25 1313.59C1608.45 1313.2 1616.65 1314.42 1624.37 1317.19C1632.1 1319.96 1639.21 1324.22 1645.29 1329.74C1651.37 1335.26 1656.3 1341.91 1659.81 1349.34C1663.31 1356.76 1665.32 1364.8 1665.72 1373C1666.12 1381.2 1664.9 1389.4 1662.12 1397.12L1657 1410.75C1652.36 1422.38 1644.34 1432.35 1633.98 1439.37C1623.62 1446.4 1611.39 1450.17 1598.88 1450.19V1450.19ZM874.938 1314.69C841.063 1314.69 813.25 1289.69 812.5 1255.69V1250L812.75 1235.25C813.433 1218.71 820.619 1203.11 832.744 1191.84C844.869 1180.57 860.954 1174.54 877.5 1175.06C885.704 1175.36 893.769 1177.27 901.234 1180.69C908.699 1184.1 915.418 1188.96 921.007 1194.97C926.596 1200.98 930.946 1208.04 933.808 1215.73C936.67 1223.43 937.988 1231.61 937.688 1239.81L937.5 1250C937.5 1284.25 909.937 1314.25 875.687 1314.62L874.938 1314.69ZM1605.94 1194.19C1592.72 1194.18 1579.85 1189.98 1569.17 1182.2C1558.49 1174.42 1550.56 1163.45 1546.5 1150.87L1543.31 1142C1540.41 1134.32 1539.05 1126.15 1539.31 1117.94C1539.57 1109.74 1541.44 1101.67 1544.81 1094.19C1548.19 1086.7 1553.01 1079.96 1558.99 1074.34C1564.98 1068.72 1572.01 1064.34 1579.69 1061.44C1587.37 1058.54 1595.54 1057.18 1603.74 1057.43C1611.95 1057.69 1620.02 1059.56 1627.5 1062.94C1634.98 1066.32 1641.73 1071.14 1647.34 1077.12C1652.96 1083.1 1657.35 1090.13 1660.25 1097.81C1662.06 1102.62 1663.81 1107.5 1665.37 1112.44C1668.41 1121.81 1669.19 1131.78 1667.64 1141.51C1666.09 1151.24 1662.26 1160.47 1656.46 1168.44C1650.67 1176.41 1643.07 1182.9 1634.29 1187.37C1625.51 1191.85 1615.79 1194.18 1605.94 1194.19ZM962.375 1071.81C950.487 1071.8 938.848 1068.41 928.823 1062.02C918.799 1055.63 910.805 1046.51 905.779 1035.74C900.753 1024.96 898.904 1012.98 900.449 1001.19C901.994 989.404 906.868 978.302 914.5 969.187L924.125 958.063C935.223 945.738 950.762 938.327 967.323 937.46C983.885 936.592 1000.11 942.34 1012.44 953.437C1024.76 964.535 1032.17 980.074 1033.04 996.636C1033.91 1013.2 1028.16 1029.43 1017.06 1041.75L1010.44 1049.44C1004.54 1056.45 997.188 1062.08 988.885 1065.95C980.582 1069.82 971.534 1071.82 962.375 1071.81V1071.81ZM1446.87 993.375C1435.38 993.391 1424.1 990.21 1414.31 984.187L1405.13 978.625C1397.9 974.59 1391.54 969.159 1386.43 962.649C1381.32 956.138 1377.55 948.676 1375.35 940.698C1373.14 932.719 1372.55 924.382 1373.59 916.171C1374.64 907.959 1377.3 900.037 1381.43 892.864C1385.56 885.691 1391.08 879.41 1397.66 874.385C1404.23 869.361 1411.74 865.693 1419.75 863.595C1427.76 861.497 1436.1 861.01 1444.3 862.164C1452.5 863.317 1460.38 866.087 1467.5 870.312L1479.62 877.5C1491.28 884.603 1500.3 895.328 1505.29 908.036C1510.28 920.744 1510.97 934.736 1507.25 947.874C1503.54 961.012 1495.63 972.572 1484.72 980.789C1473.82 989.006 1460.53 993.426 1446.87 993.375V993.375ZM1183.87 943.313C1168.27 943.294 1153.24 937.441 1141.74 926.904C1130.23 916.367 1123.08 901.907 1121.7 886.366C1120.31 870.826 1124.78 855.329 1134.24 842.921C1143.7 830.514 1157.46 822.092 1172.81 819.312L1187.56 816.937C1195.69 815.805 1203.96 816.284 1211.9 818.347C1219.84 820.41 1227.29 824.017 1233.84 828.962C1240.39 833.906 1245.9 840.092 1250.05 847.165C1254.21 854.239 1256.93 862.062 1258.06 870.188C1259.2 878.313 1258.72 886.582 1256.65 894.523C1254.59 902.463 1250.98 909.919 1246.04 916.466C1241.09 923.012 1234.91 928.521 1227.83 932.677C1220.76 936.833 1212.94 939.555 1204.81 940.688L1195 942.25C1191.34 942.972 1187.61 943.328 1183.87 943.313V943.313Z" fill="#D36056"/>
</svg>
